<?xml version="1.0" standalone="no"?>
<!DOCTYPE svg PUBLIC "-//W3C//DTD SVG 20010904//EN"
 "http://www.w3.org/TR/2001/REC-SVG-20010904/DTD/svg10.dtd">
<svg version="1.0" xmlns="http://www.w3.org/2000/svg"
 width="512.000000pt" height="512.000000pt" viewBox="0 0 512.000000 512.000000"
 preserveAspectRatio="xMidYMid meet">
<metadata>
Created by potrace 1.14, written by Peter Selinger 2001-2017
</metadata>
<g transform="translate(0.000000,512.000000) scale(0.100000,-0.100000)"
fill="#000000" stroke="none">
<path d="M1520 4810 l0 -310 600 0 600 0 0 310 0 310 -600 0 -600 0 0 -310z"/>
<path d="M3383 4790 c-307 -39 -550 -251 -635 -556 l-22 -79 -4 -1027 -3
-1028 -599 0 -600 0 0 -300 0 -300 750 0 750 0 0 1313 c0 1094 3 1320 14 1358
58 190 232 329 412 329 232 0 423 -151 464 -369 6 -35 10 -508 10 -1342 l0
-1289 150 0 150 0 -3 1343 c-3 1510 5 1369 -83 1547 -40 80 -62 110 -139 186
-80 81 -103 98 -195 142 -58 27 -126 55 -152 61 -70 16 -183 21 -265 11z"/>
<path d="M0 4050 l0 -150 249 0 248 0 299 -1497 300 -1498 419 -5 c231 -3 399
-8 373 -11 -75 -10 -169 -60 -233 -124 -258 -258 -113 -700 249 -756 293 -46
553 214 507 507 -29 185 -181 344 -358 374 -26 4 339 8 812 8 509 0 842 -4
816 -9 -227 -44 -391 -278 -353 -505 32 -196 180 -344 376 -376 186 -31 387
75 467 246 61 131 61 261 0 392 -56 119 -191 224 -314 242 -23 4 144 9 372 12
l414 5 239 1104 c169 781 235 1107 227 1112 -13 8 -280 62 -284 57 -1 -2 -96
-437 -210 -968 -113 -531 -209 -975 -212 -988 l-5 -22 -1528 0 -1527 0 -299
1498 -300 1497 -372 3 -372 2 0 -150z m2040 -3470 c45 -23 80 -80 80 -130 0
-76 -74 -150 -150 -150 -76 0 -150 74 -150 150 0 48 35 107 78 129 48 26 93
26 142 1z m1796 -1 c45 -21 84 -81 84 -129 0 -13 -9 -43 -21 -66 -21 -45 -81
-84 -129 -84 -48 0 -108 39 -129 84 -26 53 -26 79 0 132 14 30 32 48 62 63 53
26 80 26 133 0z"/>
<path d="M1970 3300 l0 -600 150 0 150 0 0 600 0 600 -150 0 -150 0 0 -600z"/>
</g>
</svg>
